<?xml version="1.0" encoding="UTF-8"?>
<svg width="500mm" height="500mm" version="1.1" viewBox="0 0 1771.6535 1771.6535" xmlns="http://www.w3.org/2000/svg" xmlns:xlink="http://www.w3.org/1999/xlink">
 <defs>
  <radialGradient id="t" cx="370.96" cy="806.98" r="324.56" gradientTransform="matrix(1 0 0 .40039 0 483.87)" gradientUnits="userSpaceOnUse">
   <stop stop-color="#556b2f" offset="0"/>
   <stop stop-color="#556b2f" stop-opacity="0" offset="1"/>
  </radialGradient>
  <linearGradient id="m" x1="484.88" x2="465.12" y1="601.61" y2="720.13" gradientUnits="userSpaceOnUse">
   <stop stop-color="#a0522d" offset="0"/>
   <stop stop-color="#a0522d" stop-opacity="0" offset="1"/>
  </linearGradient>
  <linearGradient id="n" x1="289.13" x2="290.93" y1="450.75" y2="614.18" gradientUnits="userSpaceOnUse">
   <stop stop-color="#8b4513" offset="0"/>
   <stop stop-color="#8b4513" stop-opacity="0" offset="1"/>
  </linearGradient>
  <linearGradient id="o" x1="-835.03" x2="-852.8" y1="578.15" y2="514.65" gradientUnits="userSpaceOnUse">
   <stop stop-color="#b8860b" offset="0"/>
   <stop stop-color="#b8860b" stop-opacity="0" offset="1"/>
  </linearGradient>
  <linearGradient id="p" x1="-799.47" x2="-805.82" y1="477.19" y2="448.62" gradientUnits="userSpaceOnUse">
   <stop stop-color="#800000" offset="0"/>
   <stop stop-color="#800000" stop-opacity="0" offset="1"/>
  </linearGradient>
  <linearGradient id="q" x1="589.57" x2="587.62" y1="516.92" y2="456.43" gradientUnits="userSpaceOnUse">
   <stop stop-color="#800000" offset="0"/>
   <stop stop-color="#800000" stop-opacity="0" offset="1"/>
  </linearGradient>
  <linearGradient id="r" x1="292.07" x2="299.05" y1="796.49" y2="724.1" gradientUnits="userSpaceOnUse">
   <stop stop-color="#a0522d" offset="0"/>
   <stop stop-color="#a0522d" stop-opacity="0" offset="1"/>
  </linearGradient>
  <linearGradient id="s" x1="417.78" x2="441.27" y1="828.87" y2="748.23" gradientUnits="userSpaceOnUse">
   <stop stop-color="#8b4513" offset="0"/>
   <stop stop-color="#8b4513" stop-opacity="0" offset="1"/>
  </linearGradient>
  <linearGradient id="a" x1="-219.18" x2="-219.44" y1="410.41" y2="385.75" gradientUnits="userSpaceOnUse">
   <stop stop-color="#ffa500" offset="0"/>
   <stop stop-color="#ffa500" stop-opacity="0" offset="1"/>
  </linearGradient>
  <radialGradient id="u" cx="351.17" cy="395.31" r="349.21" gradientTransform="matrix(1 0 0 .78885 0 83.469)" gradientUnits="userSpaceOnUse">
   <stop stop-color="#008080" offset="0"/>
   <stop stop-color="#008080" stop-opacity="0" offset="1"/>
  </radialGradient>
  <linearGradient id="b" x1="-219.18" x2="-219.44" y1="410.41" y2="385.75" gradientUnits="userSpaceOnUse">
   <stop stop-color="#ff5800" offset="0"/>
   <stop stop-color="#ff5800" stop-opacity="0" offset="1"/>
  </linearGradient>
  <filter id="e" x="-.082872" y="-.2174" width="1.1657" height="1.4348" color-interpolation-filters="sRGB">
   <feGaussianBlur stdDeviation="8.201873"/>
  </filter>
 </defs>
 <g transform="translate(0 719.29)">
  <g transform="matrix(.91528 0 0 .91528 34.245 42.564)">
   <g transform="matrix(.57954 0 0 .57954 -41.104 266.95)">
    <g transform="matrix(2.1076 0 0 2.1076 184.71 -1177.6)">
     <path transform="matrix(1.7255 0 0 1.7255 70.925 -460.63)" d="m492.7 136.8c-19.295 82.668-201.64-47.542-257.78 17.778-20.209 23.513 74.039 79.415 7.6191 92.699-36.627 7.3254-137.85-19.469-154.92 31.746-12.969 38.908 87.345 46.929 63.493 78.731-30.72 40.959-166.49-1.9871-147.3 93.969 15.185 75.924 103.49 38.086 132.06 95.239 19.43 38.86-68.977 78.153-31.746 107.94 70.854 56.683 132.73-56.067 194.29-62.223 56.306-5.6306 298.85 124.36 314.92 27.937 6.5194-39.116-60.68-80.41-43.175-106.67 35.325-52.988 139.68-3.86 129.53-95.239-11.796-106.16-198.68-29.567-212.07-96.509-4.1912-20.956 17.648-39.59 34.286-46.985 54.251-24.111 163.64-23.192 165.08-85.08 0.74981-32.228-52.867-39.217-83.81-48.254-35.386-10.336-102.1-40.979-110.48-5.0794z" fill="#87ceeb"/>
     <path transform="matrix(1.7255 0 0 1.7255 70.925 -460.63)" d="m492.7 136.8c-19.295 82.668-201.64-47.542-257.78 17.778-20.209 23.513 74.039 79.415 7.6191 92.699-36.627 7.3254-137.85-19.469-154.92 31.746-12.969 38.908 87.345 46.929 63.493 78.731-30.72 40.959-166.49-1.9871-147.3 93.969 15.185 75.924 103.49 38.086 132.06 95.239 19.43 38.86-68.977 78.153-31.746 107.94 70.854 56.683 132.73-56.067 194.29-62.223 56.306-5.6306 298.85 124.36 314.92 27.937 6.5194-39.116-60.68-80.41-43.175-106.67 35.325-52.988 139.68-3.86 129.53-95.239-11.796-106.16-198.68-29.567-212.07-96.509-4.1912-20.956 17.648-39.59 34.286-46.985 54.251-24.111 163.64-23.192 165.08-85.08 0.74981-32.228-52.867-39.217-83.81-48.254-35.386-10.336-102.1-40.979-110.48-5.0794z" fill="url(#u)"/>
     <path transform="matrix(1.7255 0 0 1.7255 70.925 -460.63)" d="m607 729.11c-71.596-19.044-141.34-52.08-217.3-52.08-44.153 0-353.97 28.348-343.01 50.284 14.114 28.228 87.616-4.3528 102.36 25.142 19.893 39.786-105.01 27.036-89.792 57.467 13.374 26.749 122.11 5.8352 149.06 12.571 39.975 9.9938-41.012 23.521-14.367 39.509 21.706 13.024 101.81 0.96445 144.74 12.78 42.931 11.816 48.689 47.506 72.557 55.462 16.9 5.6335 72.244 8.5381 87.996 5.3875 105.48-21.095-153.65-73.63-48.488-73.63 32.064 0 86.496 20.504 116.73 5.3875 30.204-15.102 0.47586-51.75 1.7958-52.08 38.97-9.7425 94.752 14.795 122.12-12.571 31.806-31.806-131.1-11.683-131.1-37.713 0-6.7505 139.67-11.186 46.692-35.917z" fill="#6b8e23"/>
     <path transform="matrix(1.7255 0 0 1.7255 70.925 -460.63)" d="m387.9 701.22c-77.517 4.1618-154.9 11.336-231.71 22.604 18.321 12.501 25.126 40.352 11.773 58.865-2.9483 2.9229-6.7798 7.456-3.3476 11.535 5.0913 6.2243 14.046 2.0742 20.732 3.0057 17.11-0.0791 36.814 0.71731 50.207 12.908 8.5946 9.1415 9.6804 23.429 4.9902 34.707 43.092 0.42176 88.471-3.494 128.25 16.248 10.913 6.2242 20.238 16.465 33.465 17.641-7.0753-18.891 9.7599-42.023 30.07-39.99 42.936-5.2525 84.938 16.275 127.91 7.6875-9.3515-10.779-18.437-26.087-12.762-40.748 2.4505-3.9811 6.5048-8.9488 3.377-13.811-4.5914-4.7009-10.705-8.6286-12.369-15.479-4.1574-11.463-0.8718-26.25 9.9453-32.84 2.371-5.9658-4.4899-9.512-9.373-9.9883-49.048-15.759-98.934-33.181-151.16-32.346z" opacity=".2"/>
     <path transform="matrix(1.7255 0 0 1.7255 70.925 -460.63)" d="m607 729.11c-71.596-19.044-141.34-52.08-217.3-52.08-44.153 0-353.97 28.348-343.01 50.284 14.114 28.228 87.616-4.3528 102.36 25.142 19.893 39.786-105.01 27.036-89.792 57.467 13.374 26.749 122.11 5.8352 149.06 12.571 39.975 9.9938-41.012 23.521-14.367 39.509 21.706 13.024 101.81 0.96445 144.74 12.78 42.931 11.816 48.689 47.506 72.557 55.462 16.9 5.6335 72.244 8.5381 87.996 5.3875 105.48-21.095-153.65-73.63-48.488-73.63 32.064 0 86.496 20.504 116.73 5.3875 30.204-15.102 0.47586-51.75 1.7958-52.08 38.97-9.7425 94.752 14.795 122.12-12.571 31.806-31.806-131.1-11.683-131.1-37.713 0-6.7505 139.67-11.186 46.692-35.917z" fill="url(#t)"/>
     <path transform="matrix(1.7255 0 0 1.7255 1919.3 -594.42)" d="m-894.65 591.21c-22.707-3.1029-37.225-9.5931-45.709-20.435-1.5258-1.9498-1.627-7.9226-0.22002-12.988 3.3824-12.178 24.102-29.615 51.371-43.23 43.984-21.962 96.022-36.654 156.18-44.095 17.272-2.1363 58.483-2.4745 70.711-0.5802 23.436 3.6308 41.922 12.342 43.836 20.658 1.2645 5.4945 0.52926 12.5-1.8134 17.278-6.7598 13.788-32.74 32.173-65.256 46.179-38.315 16.504-86.378 29.394-131.82 35.353-18.812 2.4666-64.753 3.5738-77.277 1.8625z" fill="#ffa500"/>
     <path transform="matrix(1.7255 0 0 1.7255 1919.3 -594.42)" d="m-894.65 591.21c-22.707-3.1029-37.225-9.5931-45.709-20.435-1.5258-1.9498-1.627-7.9226-0.22002-12.988 3.3824-12.178 24.102-29.615 51.371-43.23 43.984-21.962 96.022-36.654 156.18-44.095 17.272-2.1363 58.483-2.4745 70.711-0.5802 23.436 3.6308 41.922 12.342 43.836 20.658 1.2645 5.4945 0.52926 12.5-1.8134 17.278-6.7598 13.788-32.74 32.173-65.256 46.179-38.315 16.504-86.378 29.394-131.82 35.353-18.812 2.4666-64.753 3.5738-77.277 1.8625z" fill="url(#o)"/>
     <path transform="matrix(1.7255 0 0 1.7255 1919.3 -594.42)" d="m-946.21 566.8c-12.996-14.919-14.066-36.155-2.7783-55.141 4.9417-8.3121 16.612-20.818 26.989-28.921 33.451-26.12 81.391-44.113 140.49-52.728 17.489-2.5495 64.103-2.5814 80.028-0.0548 22.655 3.5943 43.257 10.156 56.452 17.979 9.1539 5.4274 20.1 16.331 23.627 23.535 3.1094 6.3514 4.6014 20.496 3.395 21.702-0.37251 0.37251-0.75369-4.1306-2.3991-6.1268-19.161-23.246-93.767-22.683-178.78-2.197-56.037 13.504-108.22 34.637-130.03 56.446-9.4141 9.4141-12.912 16.46-12.096 24.364 0.30857 2.9898 0.17474 5.4359-0.29741 5.4359s-2.5414-1.9319-4.5982-4.2932z" fill="#f00"/>
     <path transform="matrix(1.7255 0 0 1.7255 1919.3 -594.42)" d="m-946.21 566.8c-12.996-14.919-14.066-36.155-2.7783-55.141 4.9417-8.3121 16.612-20.818 26.989-28.921 33.451-26.12 81.391-44.113 140.49-52.728 17.489-2.5495 64.103-2.5814 80.028-0.0548 22.655 3.5943 43.257 10.156 56.452 17.979 9.1539 5.4274 20.1 16.331 23.627 23.535 3.1094 6.3514 4.6014 20.496 3.395 21.702-0.37251 0.37251-0.75369-4.1306-2.3991-6.1268-19.161-23.246-93.767-22.683-178.78-2.197-56.037 13.504-108.22 34.637-130.03 56.446-9.4141 9.4141-12.912 16.46-12.096 24.364 0.30857 2.9898 0.17474 5.4359-0.29741 5.4359s-2.5414-1.9319-4.5982-4.2932z" fill="url(#p)"/>
     <path transform="matrix(1.7255 0 0 1.7255 1919.3 -594.42)" d="m-864.05 575c-16.662-2.2769-27.315-7.0392-33.541-14.995-1.1196-1.4307-1.1939-5.8135-0.16145-9.5306 2.482-8.9361 17.686-21.731 37.695-31.722 32.275-16.115 70.459-26.896 114.6-32.356 12.674-1.5676 42.914-1.8157 51.886-0.42574 17.197 2.6642 30.761 9.0565 32.166 15.158 0.92787 4.0318 0.38836 9.1721-1.3307 12.678-4.9602 10.117-24.024 23.608-47.883 33.885-28.115 12.11-63.383 21.568-96.731 25.941-13.804 1.8099-47.514 2.6224-56.704 1.3667z" fill="#806600" filter="url(#e)"/>
     <path transform="matrix(1.7255 0 0 1.7255 70.925 -460.63)" d="m341.43 440.99s-16.593-5.8815-25.254-7.0711c-8.006-1.0997-16.178-0.50215-24.244 0-8.1284 0.50606-16.427 0.74548-24.244 3.0305-7.5173 2.1974-16.846 3.6001-21.213 10.102-9.9664 14.838-1.6835 35.714-3.0305 53.538-1.8861 24.957-3.5827 49.967-7.0711 74.751-3.0559 21.711-7.5417 43.208-12.122 64.65-3.6168 16.932-9.3439 33.418-12.122 50.508-2.4945 15.346-6.9533 31.195-4.0406 46.467 2.539 13.313 10.258 25.371 18.183 36.366 6.404 8.885 13.603 18.017 23.234 23.234 11.497 6.228 25.312 7.8573 38.386 8.0812 13.671 0.2341 27.886-1.5748 40.406-7.0711 11.655-5.1165 21.878-13.693 30.305-23.234 7.493-8.4837 17.173-25.254 17.173-29.294s6.0609-29.294 6.0609-29.294-3.0304-25.254-3.0304-30.305-5.3805-24.919-8.0812-37.376c-5.0377-23.236-10.882-46.311-15.152-69.701-3.3011-18.082-6.2493-36.259-8.0812-54.548-1.9155-19.124-1.3795-38.43-3.0305-57.579-0.72829-8.447-3.0305-25.254-3.0305-25.254z" fill="#f4a460"/>
     <ellipse transform="matrix(1.7082 .24379 -.30353 1.6986 70.925 -460.63)" cx="586.52" cy="507.04" rx="91.19" ry="71.993" fill="#f00"/>
     <ellipse transform="matrix(1.7082 .24379 -.30353 1.6986 70.925 -460.63)" cx="586.52" cy="507.04" rx="91.19" ry="71.993" fill="url(#q)"/>
     <path transform="matrix(1.7255 0 0 1.7255 70.925 -460.63)" d="m483.59 582.46a40.945 27.455 0 0 0 -38.584 18.365c-6.0644 8.3829-4.9852 21.349-8.5098 31.502-5.5397 15.958-10.938 31.977-17.725 47.611-5.945 13.696-12.992 27.062-20.105 40.381-5.6177 10.518-12.842 20.468-17.818 31.199-4.4682 9.6363-10.58 19.34-10.734 29.642-0.1348 8.9808 4.0535 17.831 8.5781 26.018 3.6566 6.616 7.9058 13.496 14.723 18.156 8.1384 5.5635 18.864 8.4476 29.229 10.32 10.838 1.9583 22.439 2.6613 33.289 0.7461 10.1-1.7828 19.622-6.0018 27.869-11.084 7.334-4.5194 17.748-14.13 18.402-16.754 0.65398-2.6241 9.5625-18.225 9.5625-18.225s1.6767-16.8 2.4941-20.08c0.81745-3.28-0.24655-16.893-0.37891-25.34-0.24694-15.755-1.1621-31.512-0.77343-47.266 0.30049-12.179 0.89762-24.371 2.4004-36.49 1.5713-12.672 5.1224-25.14 6.9082-37.793 0.77328-5.4792 4.4043-11.729 1.8125-16.529a40.945 27.455 0 0 0 -40.639 -24.381z" fill="#deb887"/>
     <path transform="matrix(1.7255 0 0 1.7255 70.925 -460.63)" d="m483.59 582.46a40.945 27.455 0 0 0 -38.584 18.365c-6.0644 8.3829-4.9852 21.349-8.5098 31.502-5.5397 15.958-10.938 31.977-17.725 47.611-5.945 13.696-12.992 27.062-20.105 40.381-5.6177 10.518-12.842 20.468-17.818 31.199-4.4682 9.6363-10.58 19.34-10.734 29.642-0.1348 8.9808 4.0535 17.831 8.5781 26.018 3.6566 6.616 7.9058 13.496 14.723 18.156 8.1384 5.5635 18.864 8.4476 29.229 10.32 10.838 1.9583 22.439 2.6613 33.289 0.7461 10.1-1.7828 19.622-6.0018 27.869-11.084 7.334-4.5194 17.748-14.13 18.402-16.754 0.65398-2.6241 9.5625-18.225 9.5625-18.225s1.6767-16.8 2.4941-20.08c0.81745-3.28-0.24655-16.893-0.37891-25.34-0.24694-15.755-1.1621-31.512-0.77343-47.266 0.30049-12.179 0.89762-24.371 2.4004-36.49 1.5713-12.672 5.1224-25.14 6.9082-37.793 0.77328-5.4792 4.4043-11.729 1.8125-16.529a40.945 27.455 0 0 0 -40.639 -24.381z" fill="url(#m)"/>
     <path transform="matrix(1.7255 0 0 1.7255 70.925 -460.63)" d="m341.43 440.99s-16.593-5.8815-25.254-7.0711c-8.006-1.0997-16.178-0.50215-24.244 0-8.1284 0.50606-16.427 0.74548-24.244 3.0305-7.5173 2.1974-16.846 3.6001-21.213 10.102-9.9664 14.838-1.6835 35.714-3.0305 53.538-1.8861 24.957-3.5827 49.967-7.0711 74.751-3.0559 21.711-7.5417 43.208-12.122 64.65-3.6168 16.932-9.3439 33.418-12.122 50.508-2.4945 15.346-6.9533 31.195-4.0406 46.467 2.539 13.313 10.258 25.371 18.183 36.366 6.404 8.885 13.603 18.017 23.234 23.234 11.497 6.228 25.312 7.8573 38.386 8.0812 13.671 0.2341 27.886-1.5748 40.406-7.0711 11.655-5.1165 21.878-13.693 30.305-23.234 7.493-8.4837 17.173-25.254 17.173-29.294s6.0609-29.294 6.0609-29.294-3.0304-25.254-3.0304-30.305-5.3805-24.919-8.0812-37.376c-5.0377-23.236-10.882-46.311-15.152-69.701-3.3011-18.082-6.2493-36.259-8.0812-54.548-1.9155-19.124-1.3795-38.43-3.0305-57.579-0.72829-8.447-3.0305-25.254-3.0305-25.254z" fill="url(#n)"/>
     <g transform="translate(0 4.1163)" fill="#800000">
      <ellipse transform="matrix(1.7255 0 0 1.7255 70.925 -460.63)" cx="483.81" cy="530.13" rx="15.238" ry="6.0318"/>
      <ellipse transform="matrix(1.7255 0 0 1.7255 70.925 -460.63)" cx="539.37" cy="534.9" rx="7.3017" ry="5.7143"/>
      <ellipse transform="matrix(1.7255 0 0 1.7255 70.925 -460.63)" cx="438.73" cy="536.17" rx="6.9842" ry="5.7143"/>
      <ellipse transform="matrix(1.7255 0 0 1.7255 70.925 -460.63)" cx="509.53" cy="523.15" rx="4.127" ry="4.762"/>
      <ellipse transform="matrix(1.7255 0 0 1.7255 70.925 -460.63)" cx="569.53" cy="565.69" rx="4.4445" ry="4.127"/>
      <ellipse transform="matrix(1.7255 0 0 1.7255 70.925 -460.63)" cx="550.16" cy="555.85" rx="4.127" ry="5.7143"/>
      <ellipse transform="matrix(1.7255 0 0 1.7255 70.925 -460.63)" cx="415.56" cy="566.01" rx="5.3969" ry="5.7143"/>
      <ellipse transform="matrix(1.7255 0 0 1.7255 70.925 -460.63)" cx="439.05" cy="559.02" rx="6.0318" ry="5.7143"/>
     </g>
     <g fill="#fff">
      <ellipse transform="matrix(1.7255 0 0 1.7255 70.925 -460.63)" cx="483.81" cy="530.13" rx="15.238" ry="6.0318"/>
      <ellipse transform="matrix(1.7255 0 0 1.7255 70.925 -460.63)" cx="539.37" cy="534.9" rx="7.3017" ry="5.7143"/>
      <ellipse transform="matrix(1.7255 0 0 1.7255 70.925 -460.63)" cx="438.73" cy="536.17" rx="6.9842" ry="5.7143"/>
      <ellipse transform="matrix(1.7255 0 0 1.7255 70.925 -460.63)" cx="509.53" cy="523.15" rx="4.127" ry="4.762"/>
      <ellipse transform="matrix(1.7255 0 0 1.7255 70.925 -460.63)" cx="569.53" cy="565.69" rx="4.4445" ry="4.127"/>
      <ellipse transform="matrix(1.7255 0 0 1.7255 70.925 -460.63)" cx="550.16" cy="555.85" rx="4.127" ry="5.7143"/>
      <ellipse transform="matrix(1.7255 0 0 1.7255 70.925 -460.63)" cx="415.56" cy="566.01" rx="5.3969" ry="5.7143"/>
      <ellipse transform="matrix(1.7255 0 0 1.7255 70.925 -460.63)" cx="439.05" cy="559.02" rx="6.0318" ry="5.7143"/>
     </g>
     <g transform="translate(0 2.0581)" fill="#800000">
      <ellipse transform="matrix(1.7255 0 0 1.7255 70.925 -460.63)" cx="273.34" cy="371.4" rx="11.111" ry="4.127"/>
      <ellipse transform="matrix(1.7255 0 0 1.7255 70.925 -460.63)" cx="337.78" cy="362.2" rx="8.2541" ry="3.8096"/>
      <ellipse transform="matrix(1.7255 0 0 1.7255 70.925 -460.63)" cx="302.23" cy="363.47" rx="5.7143" ry="4.4445"/>
      <ellipse transform="matrix(1.7255 0 0 1.7255 70.925 -460.63)" cx="205.72" cy="386.32" rx="8.2541" ry="5.0794"/>
      <ellipse transform="matrix(1.7255 0 0 1.7255 70.925 -460.63)" cx="172.7" cy="401.88" rx="6.3493" ry="4.762"/>
      <ellipse transform="matrix(1.7255 0 0 1.7255 70.925 -460.63)" cx="241.59" cy="375.53" rx="6.0318" ry="4.4445"/>
      <ellipse transform="matrix(1.7255 0 0 1.7255 70.925 -460.63)" cx="151.75" cy="417.75" rx="3.8096" ry="4.127"/>
      <ellipse transform="matrix(1.7255 0 0 1.7255 70.925 -460.63)" cx="387.31" cy="370.13" rx="7.6191" ry="2.8572"/>
      <ellipse transform="matrix(1.7255 0 0 1.7255 70.925 -460.63)" cx="418.42" cy="379.97" rx="6.3493" ry="3.8096"/>
      <ellipse transform="matrix(1.7255 0 0 1.7255 70.925 -460.63)" cx="358.73" cy="376.8" rx="6.3493" ry="4.4445"/>
     </g>
     <ellipse transform="matrix(1.7255 0 0 1.7255 70.925 -460.63)" cx="273.34" cy="371.4" rx="11.111" ry="4.127" fill="#fff"/>
     <ellipse transform="matrix(1.7255 0 0 1.7255 70.925 -460.63)" cx="337.78" cy="362.2" rx="8.2541" ry="3.8096" fill="#fff"/>
     <ellipse transform="matrix(1.7255 0 0 1.7255 70.925 -460.63)" cx="302.23" cy="363.47" rx="5.7143" ry="4.4445" fill="#fff"/>
     <ellipse transform="matrix(1.7255 0 0 1.7255 70.925 -460.63)" cx="205.72" cy="386.32" rx="8.2541" ry="5.0794" fill="#fff"/>
     <ellipse transform="matrix(1.7255 0 0 1.7255 70.925 -460.63)" cx="172.7" cy="401.88" rx="6.3493" ry="4.762" fill="#fff"/>
     <ellipse transform="matrix(1.7255 0 0 1.7255 70.925 -460.63)" cx="241.59" cy="375.53" rx="6.0318" ry="4.4445" fill="#fff"/>
     <ellipse transform="matrix(1.7255 0 0 1.7255 70.925 -460.63)" cx="151.75" cy="417.75" rx="3.8096" ry="4.127" fill="#fff"/>
     <ellipse transform="matrix(1.7255 0 0 1.7255 70.925 -460.63)" cx="387.31" cy="370.13" rx="7.6191" ry="2.8572" fill="#fff"/>
     <ellipse transform="matrix(1.7255 0 0 1.7255 70.925 -460.63)" cx="418.42" cy="379.97" rx="6.3493" ry="3.8096" fill="#dcdcdc"/>
     <ellipse transform="matrix(1.7255 0 0 1.7255 70.925 -460.63)" cx="358.73" cy="376.8" rx="6.3493" ry="4.4445" fill="#dcdcdc"/>
     <path transform="matrix(1.7255 0 0 1.7255 70.925 -460.63)" d="m341.43 440.99s-16.593-5.8815-25.254-7.0711c-8.006-1.0997-16.178-0.50215-24.244 0-8.1284 0.50606-16.427 0.74548-24.244 3.0305-7.5173 2.1974-16.846 3.6001-21.213 10.102-9.9664 14.838-1.6835 35.714-3.0305 53.538-1.8861 24.957-3.5827 49.967-7.0711 74.751-3.0559 21.711-7.5417 43.208-12.122 64.65-3.6168 16.932-9.3439 33.418-12.122 50.508-2.4945 15.346-6.9533 31.195-4.0406 46.467 2.539 13.313 10.258 25.371 18.183 36.366 6.404 8.885 13.603 18.017 23.234 23.234 11.497 6.228 25.312 7.8573 38.386 8.0812 13.671 0.2341 27.886-1.5748 40.406-7.0711 11.655-5.1165 21.878-13.693 30.305-23.234 7.493-8.4837 17.173-25.254 17.173-29.294s6.0609-29.294 6.0609-29.294-3.0304-25.254-3.0304-30.305-5.3805-24.919-8.0812-37.376c-5.0377-23.236-10.882-46.311-15.152-69.701-3.3011-18.082-6.2493-36.259-8.0812-54.548-1.9155-19.124-1.3795-38.43-3.0305-57.579-0.72829-8.447-3.0305-25.254-3.0305-25.254z" fill="url(#r)"/>
     <path transform="matrix(1.7255 0 0 1.7255 70.925 -460.63)" d="m483.59 582.46a40.945 27.455 0 0 0 -38.584 18.365c-6.0644 8.3829-4.9852 21.349-8.5098 31.502-5.5397 15.958-10.938 31.977-17.725 47.611-5.945 13.696-12.992 27.062-20.105 40.381-5.6177 10.518-12.842 20.468-17.818 31.199-4.4682 9.6363-10.58 19.34-10.734 29.642-0.1348 8.9808 4.0535 17.831 8.5781 26.018 3.6566 6.616 7.9058 13.496 14.723 18.156 8.1384 5.5635 18.864 8.4476 29.229 10.32 10.838 1.9583 22.439 2.6613 33.289 0.7461 10.1-1.7828 19.622-6.0018 27.869-11.084 7.334-4.5194 17.748-14.13 18.402-16.754 0.65398-2.6241 9.5625-18.225 9.5625-18.225s1.6767-16.8 2.4941-20.08c0.81745-3.28-0.24655-16.893-0.37891-25.34-0.24694-15.755-1.1621-31.512-0.77343-47.266 0.30049-12.179 0.89762-24.371 2.4004-36.49 1.5713-12.672 5.1224-25.14 6.9082-37.793 0.77328-5.4792 4.4043-11.729 1.8125-16.529a40.945 27.455 0 0 0 -40.639 -24.381z" fill="url(#s)"/>
     <path d="m404.06 886.28c-51.219-165.9-192.6-296.57-207.57-461.27" fill="none" stroke="#55542f" stroke-width="8.6276"/>
     <path d="m383.56 893.97c-45.316-119.62-167.67-192.51-233.2-276.76" fill="none" stroke="#554d2f" stroke-width="8.6276"/>
     <path d="m424.56 881.15c-40.816-113.02-51.729-243.32-41.002-361.33" fill="none" stroke="#394e2f" stroke-width="8.6276"/>
     <g transform="matrix(.89258 -.4509 .4509 .89258 61.937 163.3)">
      <path d="m-142.22 441.56c0.68056-36.039-164.48 75.223-124.45 95.239 39.582 19.791 128.58-62.163 124.45-95.239z" fill="#ee82ee"/>
      <path d="m-139.52 439.55c-20.411-29.709-90.023 156.87-45.818 149.86 43.709-6.9286 68.422-125.36 45.818-149.86z" fill="#ee82ee"/>
      <path d="m-138.5 436.31c-33.94-12.138 18.845 179.88 50.582 148.32 31.38-31.205-17.914-141.69-50.582-148.32z" fill="#ee82ee"/>
      <path d="m-139.07 433.89c-35.818 4.0411 96.099 153.22 110.7 110.91 14.442-41.832-78.454-119.34-110.7-110.91z" fill="#ee82ee"/>
      <path d="m-140.69 431.94c-30.256 19.592 154.35 94.279 148.55 49.898-5.731-43.882-123.44-71.824-148.55-49.898z" fill="#ee82ee"/>
      <ellipse transform="matrix(.98065 -.19575 .19575 .98065 0 0)" cx="-217.32" cy="401.07" rx="40.635" ry="20.953" fill="#ffd700"/>
      <ellipse transform="matrix(.98065 -.19575 .19575 .98065 0 0)" cx="-217.32" cy="401.07" rx="40.635" ry="20.953" fill="url(#a)"/>
      <path d="m-160.11 466.43c-9.4612 8.3512-49.645 103.83-32.616 112.35 16.425 8.2124 36.846-96.838 32.616-112.35z" fill="#fff" opacity=".4"/>
      <path d="m-185.48 454.66c-10.046 1.808-99.612 61.634-79.729 71.575 14.118 7.059 107.58-66.512 79.729-71.575z" fill="#fff" opacity=".4"/>
      <path d="m-137.46 469.15c-13.52 12.651 31.336 132.12 43.489 107.82 8.517-17.034-29.564-98.421-40.771-109.63" fill="#fff" opacity=".4"/>
      <path d="m-113 461.9c106.27 175.1 68.812 12.511 0 0z" fill="#fff" opacity=".4"/>
      <path d="m-84.909 430.19c127.15 32.082 91.676 91.676 0 0z" fill="#fff" opacity=".4"/>
     </g>
     <g transform="matrix(.99551 .094649 -.094649 .99551 363.96 -29.062)">
      <path d="m-142.22 441.56c0.68056-36.039-164.48 75.223-124.45 95.239 39.582 19.791 128.58-62.163 124.45-95.239z" fill="#cd82ed"/>
      <path d="m-139.52 439.55c-20.411-29.709-90.023 156.87-45.818 149.86 43.709-6.9286 68.422-125.36 45.818-149.86z" fill="#cd82ed"/>
      <path d="m-138.5 436.31c-33.94-12.138 18.845 179.88 50.582 148.32 31.38-31.205-17.914-141.69-50.582-148.32z" fill="#cd82ed"/>
      <path d="m-139.07 433.89c-35.818 4.0411 96.099 153.22 110.7 110.91 14.442-41.832-78.454-119.34-110.7-110.91z" fill="#cd82ed"/>
      <path d="m-140.69 431.94c-30.256 19.592 154.35 94.279 148.55 49.898-5.731-43.882-123.44-71.824-148.55-49.898z" fill="#cd82ed"/>
      <ellipse transform="matrix(.98065 -.19575 .19575 .98065 0 0)" cx="-217.32" cy="401.07" rx="40.635" ry="20.953" fill="#ff8a00"/>
      <ellipse transform="matrix(.98065 -.19575 .19575 .98065 0 0)" cx="-217.32" cy="401.07" rx="40.635" ry="20.953" fill="url(#b)"/>
      <path d="m-160.11 466.43c-9.4612 8.3512-49.645 103.83-32.616 112.35 16.425 8.2124 36.846-96.838 32.616-112.35z" fill="#fff" opacity=".4"/>
      <path d="m-185.48 454.66c-10.046 1.808-99.612 61.634-79.729 71.575 14.118 7.059 107.58-66.512 79.729-71.575z" fill="#fff" opacity=".4"/>
      <path d="m-137.46 469.15c-13.52 12.651 31.336 132.12 43.489 107.82 8.517-17.034-29.564-98.421-40.771-109.63" fill="#fff" opacity=".4"/>
      <path d="m-113 461.9c106.27 175.1 68.812 12.511 0 0z" fill="#fff" opacity=".4"/>
      <path d="m-84.909 430.19c127.15 32.082 91.676 91.676 0 0z" fill="#fff" opacity=".4"/>
     </g>
     <g transform="matrix(.78879 .17151 -.17151 .78879 583.38 182.59)">
      <path d="m-142.22 441.56c0.68056-36.039-164.48 75.223-124.45 95.239 39.582 19.791 128.58-62.163 124.45-95.239z" fill="#ee82ee"/>
      <path d="m-139.52 439.55c-20.411-29.709-90.023 156.87-45.818 149.86 43.709-6.9286 68.422-125.36 45.818-149.86z" fill="#ee82ee"/>
      <path d="m-138.5 436.31c-33.94-12.138 18.845 179.88 50.582 148.32 31.38-31.205-17.914-141.69-50.582-148.32z" fill="#ee82ee"/>
      <path d="m-139.07 433.89c-35.818 4.0411 96.099 153.22 110.7 110.91 14.442-41.832-78.454-119.34-110.7-110.91z" fill="#ee82ee"/>
      <path d="m-140.69 431.94c-30.256 19.592 154.35 94.279 148.55 49.898-5.731-43.882-123.44-71.824-148.55-49.898z" fill="#ee82ee"/>
      <ellipse transform="matrix(.98065 -.19575 .19575 .98065 0 0)" cx="-217.32" cy="401.07" rx="40.635" ry="20.953" fill="#ffd700"/>
      <ellipse transform="matrix(.98065 -.19575 .19575 .98065 0 0)" cx="-217.32" cy="401.07" rx="40.635" ry="20.953" fill="url(#a)"/>
      <path d="m-160.11 466.43c-9.4612 8.3512-49.645 103.83-32.616 112.35 16.425 8.2124 36.846-96.838 32.616-112.35z" fill="#fff" opacity=".4"/>
      <path d="m-185.48 454.66c-10.046 1.808-99.612 61.634-79.729 71.575 14.118 7.059 107.58-66.512 79.729-71.575z" fill="#fff" opacity=".4"/>
      <path d="m-137.46 469.15c-13.52 12.651 31.336 132.12 43.489 107.82 8.517-17.034-29.564-98.421-40.771-109.63" fill="#fff" opacity=".4"/>
      <path d="m-113 461.9c106.27 175.1 68.812 12.511 0 0z" fill="#fff" opacity=".4"/>
      <path d="m-84.909 430.19c127.15 32.082 91.676 91.676 0 0z" fill="#fff" opacity=".4"/>
     </g>
     <path d="m1149.8 917.03c18.141-112.6 60.374-214.36 151.19-287.01" fill="none" stroke="#43552f" stroke-width="8.6276"/>
     <path d="m1120.3 920.17c48.458-152.7 56.651-334.09 77.055-487.89" fill="none" stroke="#55582f" stroke-width="6.1682"/>
     <path d="m1093.4 914.47c44.327-215.64 27.803-444.39-43.564-640.65" fill="none" stroke="#554e2f" stroke-width="8.6276"/>
     <g transform="matrix(.99641 -.084634 .084634 .99641 1142.6 -184)">
      <path d="m-142.22 441.56c0.68056-36.039-164.48 75.223-124.45 95.239 39.582 19.791 128.58-62.163 124.45-95.239z" fill="#ee82ee"/>
      <path d="m-139.52 439.55c-20.411-29.709-90.023 156.87-45.818 149.86 43.709-6.9286 68.422-125.36 45.818-149.86z" fill="#ee82ee"/>
      <path d="m-138.5 436.31c-33.94-12.138 18.845 179.88 50.582 148.32 31.38-31.205-17.914-141.69-50.582-148.32z" fill="#ee82ee"/>
      <path d="m-139.07 433.89c-35.818 4.0411 96.099 153.22 110.7 110.91 14.442-41.832-78.454-119.34-110.7-110.91z" fill="#ee82ee"/>
      <path d="m-140.69 431.94c-30.256 19.592 154.35 94.279 148.55 49.898-5.731-43.882-123.44-71.824-148.55-49.898z" fill="#ee82ee"/>
      <ellipse transform="matrix(.98065 -.19575 .19575 .98065 0 0)" cx="-217.32" cy="401.07" rx="40.635" ry="20.953" fill="#ffd700"/>
      <ellipse transform="matrix(.98065 -.19575 .19575 .98065 0 0)" cx="-217.32" cy="401.07" rx="40.635" ry="20.953" fill="url(#a)"/>
      <path d="m-160.11 466.43c-9.4612 8.3512-49.645 103.83-32.616 112.35 16.425 8.2124 36.846-96.838 32.616-112.35z" fill="#fff" opacity=".4"/>
      <path d="m-185.48 454.66c-10.046 1.808-99.612 61.634-79.729 71.575 14.118 7.059 107.58-66.512 79.729-71.575z" fill="#fff" opacity=".4"/>
      <path d="m-137.46 469.15c-13.52 12.651 31.336 132.12 43.489 107.82 8.517-17.034-29.564-98.421-40.771-109.63" fill="#fff" opacity=".4"/>
      <path d="m-113 461.9c106.27 175.1 68.812 12.511 0 0z" fill="#fff" opacity=".4"/>
      <path d="m-84.909 430.19c127.15 32.082 91.676 91.676 0 0z" fill="#fff" opacity=".4"/>
     </g>
     <g transform="matrix(.69743 .23512 -.23512 .69743 1394 143.59)">
      <path d="m-142.22 441.56c0.68056-36.039-164.48 75.223-124.45 95.239 39.582 19.791 128.58-62.163 124.45-95.239z" fill="#cd82ed"/>
      <path d="m-139.52 439.55c-20.411-29.709-90.023 156.87-45.818 149.86 43.709-6.9286 68.422-125.36 45.818-149.86z" fill="#cd82ed"/>
      <path d="m-138.5 436.31c-33.94-12.138 18.845 179.88 50.582 148.32 31.38-31.205-17.914-141.69-50.582-148.32z" fill="#cd82ed"/>
      <path d="m-139.07 433.89c-35.818 4.0411 96.099 153.22 110.7 110.91 14.442-41.832-78.454-119.34-110.7-110.91z" fill="#cd82ed"/>
      <path d="m-140.69 431.94c-30.256 19.592 154.35 94.279 148.55 49.898-5.731-43.882-123.44-71.824-148.55-49.898z" fill="#cd82ed"/>
      <ellipse transform="matrix(.98065 -.19575 .19575 .98065 0 0)" cx="-217.32" cy="401.07" rx="40.635" ry="20.953" fill="#ff8a00"/>
      <ellipse transform="matrix(.98065 -.19575 .19575 .98065 0 0)" cx="-217.32" cy="401.07" rx="40.635" ry="20.953" fill="url(#b)"/>
      <path d="m-160.11 466.43c-9.4612 8.3512-49.645 103.83-32.616 112.35 16.425 8.2124 36.846-96.838 32.616-112.35z" fill="#fff" opacity=".4"/>
      <path d="m-185.48 454.66c-10.046 1.808-99.612 61.634-79.729 71.575 14.118 7.059 107.58-66.512 79.729-71.575z" fill="#fff" opacity=".4"/>
      <path d="m-137.46 469.15c-13.52 12.651 31.336 132.12 43.489 107.82 8.517-17.034-29.564-98.421-40.771-109.63" fill="#fff" opacity=".4"/>
      <path d="m-113 461.9c106.27 175.1 68.812 12.511 0 0z" fill="#fff" opacity=".4"/>
      <path d="m-84.909 430.19c127.15 32.082 91.676 91.676 0 0z" fill="#fff" opacity=".4"/>
     </g>
     <g transform="matrix(.36076 .64152 -.64152 .36076 1668.3 539.45)">
      <path d="m-142.22 441.56c0.68056-36.039-164.48 75.223-124.45 95.239 39.582 19.791 128.58-62.163 124.45-95.239z" fill="#ee82ee"/>
      <path d="m-139.52 439.55c-20.411-29.709-90.023 156.87-45.818 149.86 43.709-6.9286 68.422-125.36 45.818-149.86z" fill="#ee82ee"/>
      <path d="m-138.5 436.31c-33.94-12.138 18.845 179.88 50.582 148.32 31.38-31.205-17.914-141.69-50.582-148.32z" fill="#ee82ee"/>
      <path d="m-139.07 433.89c-35.818 4.0411 96.099 153.22 110.7 110.91 14.442-41.832-78.454-119.34-110.7-110.91z" fill="#ee82ee"/>
      <path d="m-140.69 431.94c-30.256 19.592 154.35 94.279 148.55 49.898-5.731-43.882-123.44-71.824-148.55-49.898z" fill="#ee82ee"/>
      <ellipse transform="matrix(.98065 -.19575 .19575 .98065 0 0)" cx="-217.32" cy="401.07" rx="40.635" ry="20.953" fill="#ffd700"/>
      <ellipse transform="matrix(.98065 -.19575 .19575 .98065 0 0)" cx="-217.32" cy="401.07" rx="40.635" ry="20.953" fill="url(#a)"/>
      <path d="m-160.11 466.43c-9.4612 8.3512-49.645 103.83-32.616 112.35 16.425 8.2124 36.846-96.838 32.616-112.35z" fill="#fff" opacity=".4"/>
      <path d="m-185.48 454.66c-10.046 1.808-99.612 61.634-79.729 71.575 14.118 7.059 107.58-66.512 79.729-71.575z" fill="#fff" opacity=".4"/>
      <path d="m-137.46 469.15c-13.52 12.651 31.336 132.12 43.489 107.82 8.517-17.034-29.564-98.421-40.771-109.63" fill="#fff" opacity=".4"/>
      <path d="m-113 461.9c106.27 175.1 68.812 12.511 0 0z" fill="#fff" opacity=".4"/>
      <path d="m-84.909 430.19c127.15 32.082 91.676 91.676 0 0z" fill="#fff" opacity=".4"/>
     </g>
     <path d="m611.63 965.72c-181.33-140.12 81.023-324.85 10.25-466.39" fill="none" stroke="#737f1b" stroke-width="8.6276"/>
     <g transform="matrix(.79328 .075422 -.075422 .79328 783.6 139.3)">
      <path d="m-142.22 441.56c0.68056-36.039-164.48 75.223-124.45 95.239 39.582 19.791 128.58-62.163 124.45-95.239z" fill="#ee82ee"/>
      <path d="m-139.52 439.55c-20.411-29.709-90.023 156.87-45.818 149.86 43.709-6.9286 68.422-125.36 45.818-149.86z" fill="#ee82ee"/>
      <path d="m-138.5 436.31c-33.94-12.138 18.845 179.88 50.582 148.32 31.38-31.205-17.914-141.69-50.582-148.32z" fill="#ee82ee"/>
      <path d="m-139.07 433.89c-35.818 4.0411 96.099 153.22 110.7 110.91 14.442-41.832-78.454-119.34-110.7-110.91z" fill="#ee82ee"/>
      <path d="m-140.69 431.94c-30.256 19.592 154.35 94.279 148.55 49.898-5.731-43.882-123.44-71.824-148.55-49.898z" fill="#ee82ee"/>
      <ellipse transform="matrix(.98065 -.19575 .19575 .98065 0 0)" cx="-217.32" cy="401.07" rx="40.635" ry="20.953" fill="#ffd700"/>
      <ellipse transform="matrix(.98065 -.19575 .19575 .98065 0 0)" cx="-217.32" cy="401.07" rx="40.635" ry="20.953" fill="url(#a)"/>
      <path d="m-160.11 466.43c-9.4612 8.3512-49.645 103.83-32.616 112.35 16.425 8.2124 36.846-96.838 32.616-112.35z" fill="#fff" opacity=".4"/>
      <path d="m-185.48 454.66c-10.046 1.808-99.612 61.634-79.729 71.575 14.118 7.059 107.58-66.512 79.729-71.575z" fill="#fff" opacity=".4"/>
      <path d="m-137.46 469.15c-13.52 12.651 31.336 132.12 43.489 107.82 8.517-17.034-29.564-98.421-40.771-109.63" fill="#fff" opacity=".4"/>
      <path d="m-113 461.9c106.27 175.1 68.812 12.511 0 0z" fill="#fff" opacity=".4"/>
      <path d="m-84.909 430.19c127.15 32.082 91.676 91.676 0 0z" fill="#fff" opacity=".4"/>
     </g>
     <path d="m586.01 965.72c-133.34-29.436-72.364-160.41-107.63-248.57" fill="none" stroke="#38510d" stroke-width="8.6276"/>
     <g transform="matrix(.60254 -.15728 .15728 .60254 484.91 417.06)">
      <path d="m-142.22 441.56c0.68056-36.039-164.48 75.223-124.45 95.239 39.582 19.791 128.58-62.163 124.45-95.239z" fill="#cd82ed"/>
      <path d="m-139.52 439.55c-20.411-29.709-90.023 156.87-45.818 149.86 43.709-6.9286 68.422-125.36 45.818-149.86z" fill="#cd82ed"/>
      <path d="m-138.5 436.31c-33.94-12.138 18.845 179.88 50.582 148.32 31.38-31.205-17.914-141.69-50.582-148.32z" fill="#cd82ed"/>
      <path d="m-139.07 433.89c-35.818 4.0411 96.099 153.22 110.7 110.91 14.442-41.832-78.454-119.34-110.7-110.91z" fill="#cd82ed"/>
      <path d="m-140.69 431.94c-30.256 19.592 154.35 94.279 148.55 49.898-5.731-43.882-123.44-71.824-148.55-49.898z" fill="#cd82ed"/>
      <ellipse transform="matrix(.98065 -.19575 .19575 .98065 0 0)" cx="-217.32" cy="401.07" rx="40.635" ry="20.953" fill="#ff8a00"/>
      <ellipse transform="matrix(.98065 -.19575 .19575 .98065 0 0)" cx="-217.32" cy="401.07" rx="40.635" ry="20.953" fill="url(#b)"/>
      <path d="m-160.11 466.43c-9.4612 8.3512-49.645 103.83-32.616 112.35 16.425 8.2124 36.846-96.838 32.616-112.35z" fill="#fff" opacity=".4"/>
      <path d="m-185.48 454.66c-10.046 1.808-99.612 61.634-79.729 71.575 14.118 7.059 107.58-66.512 79.729-71.575z" fill="#fff" opacity=".4"/>
      <path d="m-137.46 469.15c-13.52 12.651 31.336 132.12 43.489 107.82 8.517-17.034-29.564-98.421-40.771-109.63" fill="#fff" opacity=".4"/>
      <path d="m-113 461.9c106.27 175.1 68.812 12.511 0 0z" fill="#fff" opacity=".4"/>
      <path d="m-84.909 430.19c127.15 32.082 91.676 91.676 0 0z" fill="#fff" opacity=".4"/>
     </g>
    </g>
   </g>
  </g>
 </g>
</svg>
